<svg xmlns="http://www.w3.org/2000/svg" xmlns:xlink="http://www.w3.org/1999/xlink" width="325.078" height="645.223"><defs><path id="a" d="M2.66 151.346c-1.805 2.591-2.818 9.902-2.64 11.362a272.1 272.1 0 01.004 38.499c-.182 1.497.832 8.809 2.636 11.399.55.784 1.171 1.511 2.007 1.511.836 0 1.46-.727 2.007-1.511 1.807-2.59 2.82-9.902 2.643-11.362a272.1 272.1 0 01-.004-38.499c.182-1.497-.832-8.809-2.639-11.399-.547-.786-1.171-1.513-2.007-1.513-.835 0-1.457.727-2.007 1.513"/></defs><clipPath id="b"><use xlink:href="#a" overflow="visible"/></clipPath><linearGradient id="c" gradientUnits="userSpaceOnUse" x1="-31.613" y1="630.643" x2="-30.52" y2="630.643" gradientTransform="scale(49.7937 -49.7937) rotate(-89.676 -334.43 297.827)"><stop offset="0" stop-color="#bcbec0"/><stop offset=".3" stop-color="#bcbec0"/><stop offset=".807" stop-color="#969697"/><stop offset="1" stop-color="#858687"/></linearGradient><path clip-path="url(#b)" fill="url(#c)" d="M9.495 149.779l.363 64.335-10.016.057-.363-64.336z"/><path fill="#FFF" d="M6.083 212.191c-1.119 1.605-1.711 1.605-2.83 0C1.58 209.792.57 202.688.739 201.294a272.273 272.273 0 000-38.638c-.169-1.394.841-8.498 2.514-10.898 1.119-1.605 1.711-1.605 2.83 0 1.673 2.399 2.684 9.504 2.514 10.899a271.962 271.962 0 000 38.637c.171 1.394-.84 8.498-2.514 10.897"/><defs><path id="d" d="M3.5 151.931c-1.613 2.313-2.623 9.364-2.461 10.706a272.899 272.899 0 01-.001 38.693c-.161 1.326.849 8.377 2.462 10.69.511.733.882 1.075 1.167 1.075.287 0 .658-.341 1.17-1.075 1.613-2.313 2.623-9.363 2.461-10.706a272.899 272.899 0 01.001-38.693c.161-1.326-.849-8.377-2.462-10.69-.512-.733-.883-1.076-1.17-1.076-.285 0-.656.342-1.167 1.076"/></defs><clipPath id="e"><use xlink:href="#d" overflow="visible"/></clipPath><linearGradient id="f" gradientUnits="userSpaceOnUse" x1="-31.612" y1="630.664" x2="-30.519" y2="630.664" gradientTransform="scale(53.2067 -53.2067) rotate(-89.676 -334.33 297.955)"><stop offset="0" stop-color="#b5b5b6"/><stop offset=".042" stop-color="#b8b9ba"/><stop offset=".086" stop-color="#c4c3c4"/><stop offset=".132" stop-color="#d6d6d6"/><stop offset=".167" stop-color="#e9e8e9"/><stop offset=".239" stop-color="#ebeaeb"/><stop offset=".256" stop-color="#ededee"/><stop offset=".278" stop-color="#ebebec"/><stop offset=".286" stop-color="#e5e5e6"/><stop offset=".292" stop-color="#dbdbdc"/><stop offset=".296" stop-color="#cccdcf"/><stop offset=".3" stop-color="#bcbec0"/><stop offset=".485" stop-color="#969697"/><stop offset=".555" stop-color="#858687"/><stop offset=".604" stop-color="#898a8b"/><stop offset=".653" stop-color="#949494"/><stop offset=".704" stop-color="#a7a5a5"/><stop offset=".754" stop-color="#c0bebf"/><stop offset=".805" stop-color="#e0e0e1"/><stop offset=".808" stop-color="#e3e2e3"/><stop offset=".814" stop-color="#e9e9ea"/><stop offset=".828" stop-color="#f5f5f5"/><stop offset=".845" stop-color="#fbfcfc"/><stop offset=".88" stop-color="#fdfefe"/><stop offset=".881" stop-color="#fcfdfd"/><stop offset=".894" stop-color="#e8e8e9"/><stop offset=".908" stop-color="#d8d9d9"/><stop offset=".926" stop-color="#cdcecf"/><stop offset=".949" stop-color="#c7c8c9"/><stop offset="1" stop-color="#c5c6c7"/></linearGradient><path clip-path="url(#e)" fill="url(#f)" d="M8.46 150.812l.352 62.281-7.934.044-.352-62.28z"/><defs><path id="g" d="M318.443 147.425c-1.833 2.174-2.86 8.319-2.68 9.534.911 10.704.911 21.109.003 31.771-.184 1.258.844 7.404 2.677 9.577.55.651 1.167 1.252 1.967 1.252.801 0 1.419-.601 1.969-1.252 1.833-2.174 2.859-8.319 2.679-9.534a185.811 185.811 0 01-.004-31.77c.185-1.258-.842-7.403-2.676-9.578-.549-.65-1.167-1.251-1.968-1.251-.8 0-1.417.601-1.967 1.251"/></defs><clipPath id="h"><use xlink:href="#g" overflow="visible"/></clipPath><linearGradient id="i" gradientUnits="userSpaceOnUse" x1="-31.599" y1="631.236" x2="-30.506" y2="631.236" gradientTransform="scale(41.3516 -41.3516) rotate(-89.676 -331.16 294.02)"><stop offset="0" stop-color="#bcbec0"/><stop offset=".3" stop-color="#bcbec0"/><stop offset=".807" stop-color="#969697"/><stop offset="1" stop-color="#858687"/></linearGradient><path clip-path="url(#h)" fill="url(#i)" d="M325.237 146.12l.303 53.437-9.957.056-.302-53.437z"/><path fill="#FFF" d="M321.826 197.842c-1.119 1.327-1.711 1.328-2.831 0-1.673-1.983-2.684-7.855-2.514-9.007.916-10.767.916-21.17 0-31.937-.17-1.152.841-7.025 2.514-9.008 1.12-1.327 1.712-1.327 2.831 0 1.672 1.983 2.683 7.855 2.514 9.008a186.13 186.13 0 000 31.937c.168 1.152-.842 7.024-2.514 9.007"/><defs><path id="j" d="M319.225 148.084c-1.604 1.899-2.606 7.683-2.444 8.789a186.809 186.809 0 01-.001 32.004c-.161 1.088.841 6.872 2.445 8.772.518.614.883.888 1.185.888.301 0 .668-.273 1.187-.888 1.603-1.901 2.604-7.684 2.443-8.79a186.82 186.82 0 01.001-32.005c.16-1.087-.842-6.871-2.444-8.771-.519-.615-.885-.889-1.187-.889s-.667.275-1.185.89"/></defs><clipPath id="k"><use xlink:href="#j" overflow="visible"/></clipPath><linearGradient id="l" gradientUnits="userSpaceOnUse" x1="-31.606" y1="631.195" x2="-30.512" y2="631.195" gradientTransform="matrix(.248 43.8895 43.8895 -.248 -27374.74 1692.803)"><stop offset="0" stop-color="#b5b5b6"/><stop offset=".042" stop-color="#b8b9ba"/><stop offset=".086" stop-color="#c4c3c4"/><stop offset=".132" stop-color="#d6d6d6"/><stop offset=".167" stop-color="#e9e8e9"/><stop offset=".239" stop-color="#ebeaeb"/><stop offset=".256" stop-color="#ededee"/><stop offset=".278" stop-color="#ebebec"/><stop offset=".286" stop-color="#e5e5e6"/><stop offset=".292" stop-color="#dbdbdc"/><stop offset=".296" stop-color="#cccdcf"/><stop offset=".3" stop-color="#bcbec0"/><stop offset=".485" stop-color="#969697"/><stop offset=".555" stop-color="#858687"/><stop offset=".604" stop-color="#898a8b"/><stop offset=".653" stop-color="#949494"/><stop offset=".704" stop-color="#a7a5a5"/><stop offset=".754" stop-color="#c0bebf"/><stop offset=".805" stop-color="#e0e0e1"/><stop offset=".808" stop-color="#e3e2e3"/><stop offset=".814" stop-color="#e9e9ea"/><stop offset=".828" stop-color="#f5f5f5"/><stop offset=".845" stop-color="#fbfcfc"/><stop offset=".88" stop-color="#fdfefe"/><stop offset=".881" stop-color="#fcfdfd"/><stop offset=".894" stop-color="#e8e8e9"/><stop offset=".908" stop-color="#d8d9d9"/><stop offset=".926" stop-color="#cdcecf"/><stop offset=".949" stop-color="#c7c8c9"/><stop offset="1" stop-color="#c5c6c7"/></linearGradient><path clip-path="url(#k)" fill="url(#l)" d="M324.201 147.152l.29 51.383-7.871.044-.29-51.382z"/><defs><path id="m" d="M2.66 227.343c-1.805 2.591-2.818 9.902-2.64 11.362.911 12.965.911 25.571.004 38.5-.182 1.496.832 8.808 2.636 11.398.55.786 1.171 1.513 2.007 1.513.836 0 1.46-.727 2.007-1.513 1.807-2.59 2.82-9.901 2.643-11.363a272.1 272.1 0 01-.004-38.499c.182-1.495-.832-8.807-2.639-11.397-.547-.785-1.171-1.511-2.007-1.511-.835-.001-1.457.725-2.007 1.51"/></defs><clipPath id="n"><use xlink:href="#m" overflow="visible"/></clipPath><linearGradient id="o" gradientUnits="userSpaceOnUse" x1="-31.482" y1="630.642" x2="-30.39" y2="630.642" gradientTransform="scale(49.7937 -49.7937) rotate(-89.676 -335.132 297.129)"><stop offset="0" stop-color="#bcbec0"/><stop offset=".3" stop-color="#bcbec0"/><stop offset=".807" stop-color="#969697"/><stop offset="1" stop-color="#858687"/></linearGradient><path clip-path="url(#n)" fill="url(#o)" d="M9.495 225.776l.363 64.336-10.016.057-.363-64.336z"/><path fill="#FFF" d="M6.083 288.189c-1.119 1.605-1.711 1.605-2.83 0C1.58 285.79.57 278.685.739 277.291a272.273 272.273 0 000-38.638c-.169-1.394.841-8.499 2.514-10.898 1.119-1.605 1.711-1.605 2.83 0 1.673 2.399 2.684 9.504 2.514 10.898a271.977 271.977 0 000 38.638c.171 1.394-.84 8.499-2.514 10.898"/><defs><path id="p" d="M3.5 227.928c-1.613 2.312-2.623 9.364-2.461 10.704a272.913 272.913 0 01-.001 38.694c-.161 1.326.849 8.377 2.462 10.69.511.733.882 1.075 1.167 1.075.287 0 .658-.342 1.17-1.075 1.613-2.313 2.623-9.363 2.461-10.706a272.899 272.899 0 01.001-38.693c.161-1.326-.849-8.378-2.462-10.69-.512-.734-.883-1.075-1.17-1.075-.285.001-.656.342-1.167 1.076"/></defs><clipPath id="q"><use xlink:href="#p" overflow="visible"/></clipPath><linearGradient id="r" gradientUnits="userSpaceOnUse" x1="-31.49" y1="630.664" x2="-30.397" y2="630.664" gradientTransform="scale(53.2067 -53.2067) rotate(-89.676 -334.987 297.302)"><stop offset="0" stop-color="#b5b5b6"/><stop offset=".042" stop-color="#b8b9ba"/><stop offset=".086" stop-color="#c4c3c4"/><stop offset=".132" stop-color="#d6d6d6"/><stop offset=".167" stop-color="#e9e8e9"/><stop offset=".239" stop-color="#ebeaeb"/><stop offset=".256" stop-color="#ededee"/><stop offset=".278" stop-color="#ebebec"/><stop offset=".286" stop-color="#e5e5e6"/><stop offset=".292" stop-color="#dbdbdc"/><stop offset=".296" stop-color="#cccdcf"/><stop offset=".3" stop-color="#bcbec0"/><stop offset=".485" stop-color="#969697"/><stop offset=".555" stop-color="#858687"/><stop offset=".604" stop-color="#898a8b"/><stop offset=".653" stop-color="#949494"/><stop offset=".704" stop-color="#a7a5a5"/><stop offset=".754" stop-color="#c0bebf"/><stop offset=".805" stop-color="#e0e0e1"/><stop offset=".808" stop-color="#e3e2e3"/><stop offset=".814" stop-color="#e9e9ea"/><stop offset=".828" stop-color="#f5f5f5"/><stop offset=".845" stop-color="#fbfcfc"/><stop offset=".88" stop-color="#fdfefe"/><stop offset=".881" stop-color="#fcfdfd"/><stop offset=".894" stop-color="#e8e8e9"/><stop offset=".908" stop-color="#d8d9d9"/><stop offset=".926" stop-color="#cdcecf"/><stop offset=".949" stop-color="#c7c8c9"/><stop offset="1" stop-color="#c5c6c7"/></linearGradient><path clip-path="url(#q)" fill="url(#r)" d="M8.46 226.81l.352 62.281-7.934.045-.352-62.281z"/><defs><path id="s" d="M3.811 76.376c-1.909 1.869-2.915 6.99-2.728 8.035.909 8.833.909 17.418.007 26.198-.194 1.098.812 6.219 2.72 8.087.52.508 1.152 1.028 1.919 1.028.767 0 1.401-.52 1.918-1.028 1.908-1.869 2.916-6.99 2.728-8.036a126.876 126.876 0 01-.006-26.198c.194-1.097-.813-6.219-2.721-8.088-.518-.507-1.152-1.026-1.918-1.026-.768.001-1.4.52-1.919 1.028"/></defs><clipPath id="t"><use xlink:href="#s" overflow="visible"/></clipPath><linearGradient id="u" gradientUnits="userSpaceOnUse" x1="-31.785" y1="630.482" x2="-30.692" y2="630.482" gradientTransform="scale(34.374 -34.374) rotate(-89.676 -333.99 298.032)"><stop offset="0" stop-color="#bcbec0"/><stop offset=".3" stop-color="#bcbec0"/><stop offset=".807" stop-color="#969697"/><stop offset="1" stop-color="#858687"/></linearGradient><path clip-path="url(#t)" fill="url(#u)" d="M10.564 75.294l.251 44.429-9.919.056-.25-44.429z"/><path fill="#FFF" d="M7.145 118.18c-1.119 1.097-1.709 1.097-2.829 0-1.674-1.638-2.684-6.492-2.515-7.445.915-8.9.915-17.498 0-26.397-.169-.953.841-5.807 2.515-7.446 1.12-1.097 1.71-1.097 2.829-.001 1.673 1.64 2.684 6.494 2.514 7.447a127.127 127.127 0 000 26.397c.17.953-.841 5.806-2.514 7.445"/><defs><path id="v" d="M4.525 77.106c-1.59 1.557-2.586 6.29-2.425 7.2.916 8.903.916 17.558-.002 26.481-.159.889.838 5.622 2.428 7.179.526.516.888.736 1.205.736.317 0 .677-.22 1.204-.736 1.591-1.557 2.587-6.29 2.427-7.201a127.717 127.717 0 01.001-26.48c.159-.889-.837-5.622-2.428-7.179-.527-.516-.888-.736-1.205-.736-.317 0-.678.221-1.205.736"/></defs><clipPath id="w"><use xlink:href="#v" overflow="visible"/></clipPath><linearGradient id="x" gradientUnits="userSpaceOnUse" x1="-31.77" y1="630.496" x2="-30.677" y2="630.496" gradientTransform="scale(36.189 -36.189) rotate(-89.676 -333.925 298.118)"><stop offset="0" stop-color="#b5b5b6"/><stop offset=".042" stop-color="#b8b9ba"/><stop offset=".086" stop-color="#c4c3c4"/><stop offset=".132" stop-color="#d6d6d6"/><stop offset=".167" stop-color="#e9e8e9"/><stop offset=".239" stop-color="#ebeaeb"/><stop offset=".256" stop-color="#ededee"/><stop offset=".278" stop-color="#ebebec"/><stop offset=".286" stop-color="#e5e5e6"/><stop offset=".292" stop-color="#dbdbdc"/><stop offset=".296" stop-color="#cccdcf"/><stop offset=".3" stop-color="#bcbec0"/><stop offset=".485" stop-color="#969697"/><stop offset=".555" stop-color="#858687"/><stop offset=".604" stop-color="#898a8b"/><stop offset=".653" stop-color="#949494"/><stop offset=".704" stop-color="#a7a5a5"/><stop offset=".754" stop-color="#c0bebf"/><stop offset=".805" stop-color="#e0e0e1"/><stop offset=".808" stop-color="#e3e2e3"/><stop offset=".814" stop-color="#e9e9ea"/><stop offset=".828" stop-color="#f5f5f5"/><stop offset=".845" stop-color="#fbfcfc"/><stop offset=".88" stop-color="#fdfefe"/><stop offset=".881" stop-color="#fcfdfd"/><stop offset=".894" stop-color="#e8e8e9"/><stop offset=".908" stop-color="#d8d9d9"/><stop offset=".926" stop-color="#cdcecf"/><stop offset=".949" stop-color="#c7c8c9"/><stop offset="1" stop-color="#c5c6c7"/></linearGradient><path clip-path="url(#w)" fill="url(#x)" d="M9.52 76.327l.24 42.374-7.821.044L1.7 76.372z"/><path fill="#666767" d="M266.649 1.803H59.028c-29.917 0-54.257 23.911-54.257 53.303v536.816c0 29.391 24.34 53.301 54.257 53.301h207.621c29.918 0 54.259-23.91 54.259-53.301V55.105c0-29.391-24.341-53.302-54.259-53.302"/><path fill="#BCBEC0" d="M271.109 642.211H53.846c-26.624 0-48.205-21.203-48.205-47.357V48.565c0-26.154 21.581-47.357 48.205-47.357h217.263c26.624 0 48.207 21.204 48.207 47.357v546.288c0 26.155-21.583 47.358-48.207 47.358"/><path fill="#FFF" d="M268.667 640.617H56.289c-26.026 0-47.122-21.1-47.122-47.123V49.925c0-26.025 21.096-47.122 47.122-47.122h212.377c26.026 0 47.122 21.097 47.122 47.122v543.569c.001 26.024-21.095 47.123-47.121 47.123"/><defs><path id="y" d="M53.531 0C26.414.166 4.411 21.89 4.411 48.565v546.288c0 26.779 22.176 48.564 49.436 48.564h217.262c27.261 0 49.438-21.785 49.438-48.564V48.565c0-26.676-22.006-48.399-49.121-48.565H53.531z"/></defs><clipPath id="z"><use xlink:href="#y" overflow="visible"/></clipPath><linearGradient id="A" gradientUnits="userSpaceOnUse" x1="-31.697" y1="630.945" x2="-30.604" y2="630.945" gradientTransform="matrix(289.1873 0 0 -289.1873 9170.637 182783.203)"><stop offset="0" stop-color="#bcbec0"/><stop offset="1" stop-color="#bcbec0"/></linearGradient><path clip-path="url(#z)" fill="url(#A)" d="M4.411 0h316.136v643.418H4.411z"/><defs><path id="B" d="M53.847 1.208c-26.624 0-48.206 21.204-48.206 47.357v546.288c0 26.154 21.583 47.357 48.206 47.357h217.262c26.623 0 48.207-21.203 48.207-47.357V48.565c0-26.154-21.584-47.357-48.207-47.357H53.847z"/></defs><clipPath id="C"><use xlink:href="#B" overflow="visible"/></clipPath><linearGradient id="D" gradientUnits="userSpaceOnUse" x1="-31.698" y1="630.944" x2="-30.605" y2="630.944" gradientTransform="matrix(286.9372 0 0 -286.9372 9100.941 181362.969)"><stop offset="0" stop-color="#bcbec0"/><stop offset=".281" stop-color="#e2e2dd"/><stop offset=".34" stop-color="#ebeae4"/><stop offset=".658" stop-color="#ecece7"/><stop offset="1" stop-color="#bcbec0"/></linearGradient><path clip-path="url(#C)" fill="url(#D)" d="M5.641 1.208h313.675v641.003H5.641z"/><defs><path id="E" d="M5.641 1.208h313.675v641.003H5.641z"/></defs><clipPath id="F"><use xlink:href="#E" overflow="visible"/></clipPath><g clip-path="url(#F)"><defs><path id="G" d="M271.109 642.211H53.847c-26.624 0-48.206-21.203-48.206-47.357V48.565c0-26.154 21.583-47.357 48.206-47.357h217.262c26.624 0 48.207 21.204 48.207 47.357v546.288c0 26.155-21.583 47.358-48.207 47.358"/></defs><clipPath id="I"><use xlink:href="#G" overflow="visible"/></clipPath><defs><filter id="H" filterUnits="userSpaceOnUse" x="-27.868" y="-15.19" width="380.693" height="673.797"><feColorMatrix values="1 0 0 0 0 0 1 0 0 0 0 0 1 0 0 0 0 0 1 0"/></filter></defs><mask maskUnits="userSpaceOnUse" x="-27.868" y="-15.19" width="380.693" height="673.797" id="K"><g filter="url(#H)"><linearGradient id="J" gradientUnits="userSpaceOnUse" x1="-31.545" y1="630.984" x2="-30.452" y2="630.984" gradientTransform="scale(274.8303 -274.8303) rotate(-86.999 -348.746 297.774)"><stop offset="0" stop-color="#171717"/><stop offset=".498" stop-color="#8b8b8b"/><stop offset=".998"/><stop offset="1"/></linearGradient><path clip-path="url(#I)" fill="url(#J)" d="M318.456-15.19l34.369 655.645L6.5 658.607-27.868 2.964z"/></g></mask><linearGradient id="L" gradientUnits="userSpaceOnUse" x1="-31.545" y1="630.984" x2="-30.452" y2="630.984" gradientTransform="scale(274.8303 -274.8303) rotate(-86.999 -348.746 297.774)"><stop offset="0" stop-color="#c5c7c7"/><stop offset=".498" stop-color="#e8e7e3"/><stop offset=".998" stop-color="#bcbec0"/><stop offset="1" stop-color="#bcbec0"/></linearGradient><path clip-path="url(#I)" mask="url(#K)" fill="url(#L)" d="M318.456-15.19l34.369 655.645L6.5 658.607-27.868 2.964z"/></g><defs><path id="M" d="M5.641 1.208h313.675v641.003H5.641z"/></defs><clipPath id="N"><use xlink:href="#M" overflow="visible"/></clipPath><g clip-path="url(#N)"><defs><path id="O" d="M271.109 642.211H53.847c-26.624 0-48.206-21.203-48.206-47.357V48.565c0-26.154 21.583-47.357 48.206-47.357h217.262c26.624 0 48.207 21.204 48.207 47.357v546.288c0 26.155-21.583 47.358-48.207 47.358"/></defs><clipPath id="Q"><use xlink:href="#O" overflow="visible"/></clipPath><defs><filter id="P" filterUnits="userSpaceOnUse" x="-2.683" y="-2.865" width="330.322" height="649.15"><feColorMatrix values="1 0 0 0 0 0 1 0 0 0 0 0 1 0 0 0 0 0 1 0"/></filter></defs><mask maskUnits="userSpaceOnUse" x="-2.683" y="-2.865" width="330.322" height="649.15" id="S"><g filter="url(#P)"><linearGradient id="R" gradientUnits="userSpaceOnUse" x1="-31.736" y1="630.957" x2="-30.643" y2="630.957" gradientTransform="scale(113.538 -113.538) rotate(-89.256 -334.797 298.674)"><stop offset="0" stop-color="#171717"/><stop offset=".498" stop-color="#b3b3b3"/><stop offset=".998"/><stop offset="1"/></linearGradient><path clip-path="url(#Q)" fill="url(#R)" d="M319.263-2.865l8.376 644.969-321.946 4.181L-2.683 1.316z"/></g></mask><linearGradient id="T" gradientUnits="userSpaceOnUse" x1="-31.736" y1="630.957" x2="-30.643" y2="630.957" gradientTransform="scale(113.538 -113.538) rotate(-89.256 -334.797 298.674)"><stop offset="0" stop-color="#c5c7c7"/><stop offset=".498" stop-color="#e8e7e3"/><stop offset=".998" stop-color="#bcbec0"/><stop offset="1" stop-color="#bcbec0"/></linearGradient><path clip-path="url(#Q)" mask="url(#S)" fill="url(#T)" d="M319.263-2.865l8.376 644.969-321.946 4.181L-2.683 1.316z"/></g><path fill="#939598" d="M268.667 640.617H56.289c-26.026 0-47.122-21.1-47.122-47.123V49.925c0-26.025 21.096-47.122 47.122-47.122h212.377c26.026 0 47.122 21.097 47.122 47.122v543.569c.001 26.024-21.095 47.123-47.121 47.123"/><defs><path id="U" d="M57.882 4.397c-25.636 0-46.416 20.992-46.416 46.887v540.851c0 25.895 20.78 46.889 46.416 46.889h209.192c25.635 0 46.417-20.994 46.417-46.889V51.284c0-25.895-20.782-46.887-46.417-46.887H57.882z"/></defs><clipPath id="V"><use xlink:href="#U" overflow="visible"/></clipPath><linearGradient id="W" gradientUnits="userSpaceOnUse" x1="-31.698" y1="630.941" x2="-30.605" y2="630.941" gradientTransform="matrix(276.2787 0 0 -276.2787 8768.992 174637.594)"><stop offset="0" stop-color="#ebeae4"/><stop offset=".021" stop-color="#edede8"/><stop offset=".121" stop-color="#f6f7f5"/><stop offset=".251" stop-color="#fbfdfd"/><stop offset=".507" stop-color="#fdfeff"/><stop offset=".818" stop-color="#fbfdfd"/><stop offset=".932" stop-color="#f5f6f6"/><stop offset="1" stop-color="#ededec"/></linearGradient><path clip-path="url(#V)" fill="url(#W)" d="M11.466 4.397H313.49v634.626H11.466z"/><path fill="#FFF" d="M12.045 593.754V60.305c0-28.59 22.982-51.768 51.332-51.768H264.36c20.83 0 38.75 12.521 46.796 30.501-7.354-19.511-26.061-33.383-47.987-33.383H62.186c-28.349 0-51.331 23.177-51.331 51.767v533.45a51.891 51.891 0 004.535 21.266 51.966 51.966 0 01-3.345-18.384"/><defs><path id="X" d="M137.911 597.635c0 14.637 11.865 26.502 26.503 26.502 14.637 0 26.504-11.865 26.504-26.502 0-14.639-11.867-26.504-26.504-26.504-14.638 0-26.503 11.865-26.503 26.504"/></defs><clipPath id="Y"><use xlink:href="#X" overflow="visible"/></clipPath><linearGradient id="Z" gradientUnits="userSpaceOnUse" x1="-31.421" y1="631.611" x2="-30.328" y2="631.611" gradientTransform="scale(-59.622 59.622) rotate(17.546 1997.107 411.848)"><stop offset="0" stop-color="#555657"/><stop offset=".342" stop-color="#ecece7"/><stop offset=".66" stop-color="#ebeae4"/><stop offset=".908" stop-color="#5a5b5c"/><stop offset=".939" stop-color="#626364"/><stop offset=".988" stop-color="#797a7b"/><stop offset="1" stop-color="#7f8182"/></linearGradient><path clip-path="url(#Y)" fill="url(#Z)" d="M206.154 619.32l-63.426 20.053-20.054-63.424 63.425-20.054z"/><path fill="#939598" d="M187.661 597.635c0 12.84-10.407 23.248-23.248 23.248-12.84 0-23.248-10.408-23.248-23.248s10.408-23.25 23.248-23.25c12.84 0 23.248 10.41 23.248 23.25"/><path fill="#FFF" d="M187.312 597.635c0 12.775-10.252 23.133-22.898 23.133-12.648 0-22.9-10.357-22.9-23.133 0-12.777 10.251-23.133 22.9-23.133 12.646 0 22.898 10.355 22.898 23.133"/><defs><path id="aa" d="M141.979 597.635c0 12.52 10.044 22.668 22.435 22.668s22.434-10.148 22.434-22.668-10.043-22.668-22.434-22.668-22.435 10.148-22.435 22.668"/></defs><clipPath id="ab"><use xlink:href="#aa" overflow="visible"/></clipPath><radialGradient id="ac" cx="-31.817" cy="629.095" r="1.093" gradientTransform="matrix(20.5223 0 0 -20.735 817.375 13641.906)" gradientUnits="userSpaceOnUse"><stop offset="0" stop-color="#fbfdfd"/><stop offset=".079" stop-color="#fbfdfd"/><stop offset="1" stop-color="#fdfeff"/></radialGradient><path clip-path="url(#ab)" fill="url(#ac)" d="M141.979 574.967h44.869v45.336h-44.869z"/><defs><path id="ad" d="M145.625 38.219a3.462 3.462 0 00-3.458 3.458v.451a3.462 3.462 0 003.458 3.458h37.126a3.462 3.462 0 003.457-3.458v-.451a3.462 3.462 0 00-3.457-3.458h-37.126z"/></defs><clipPath id="ae"><use xlink:href="#ad" overflow="visible"/></clipPath><linearGradient id="af" gradientUnits="userSpaceOnUse" x1="-30.532" y1="631.572" x2="-29.439" y2="631.572" gradientTransform="matrix(0 -6.5525 -6.5525 0 4302.57 -153.669)"><stop offset="0" stop-color="#bcbec0"/><stop offset=".25" stop-color="#eeeeef"/><stop offset=".337" stop-color="#fff"/><stop offset=".664" stop-color="#fff"/><stop offset="1" stop-color="#bcbec0"/></linearGradient><path clip-path="url(#ae)" fill="url(#af)" d="M142.167 38.219h44.041v7.367h-44.041z"/><defs><path id="ag" d="M145.625 39.422a2.254 2.254 0 00-2.254 2.254v.451a2.254 2.254 0 002.254 2.256h37.126a2.255 2.255 0 002.256-2.256v-.451a2.254 2.254 0 00-2.256-2.254h-37.126z"/></defs><clipPath id="ah"><use xlink:href="#ag" overflow="visible"/></clipPath><linearGradient id="ai" gradientUnits="userSpaceOnUse" x1="-29.919" y1="631.901" x2="-28.826" y2="631.901" gradientTransform="matrix(0 -4.4127 -4.4127 0 2952.575 -87.1)"><stop offset="0" stop-color="#969597"/><stop offset=".637" stop-color="#4a4545"/><stop offset="1" stop-color="#232021"/></linearGradient><path clip-path="url(#ah)" fill="url(#ai)" d="M143.37 39.422h41.636v4.961H143.37z"/><defs><path id="aj" d="M125.482 41.903a4.289 4.289 0 004.283 4.284c2.362 0 4.285-1.922 4.285-4.284s-1.923-4.285-4.285-4.285a4.29 4.29 0 00-4.283 4.285"/></defs><clipPath id="ak"><use xlink:href="#aj" overflow="visible"/></clipPath><linearGradient id="al" gradientUnits="userSpaceOnUse" x1="-32.578" y1="631.992" x2="-31.484" y2="631.992" gradientTransform="matrix(7.8379 0 0 -7.8379 380.822 4995.4)"><stop offset="0" stop-color="#bcbec0"/><stop offset=".25" stop-color="#eeeeef"/><stop offset=".337" stop-color="#fff"/><stop offset=".664" stop-color="#fff"/><stop offset="1" stop-color="#bcbec0"/></linearGradient><path clip-path="url(#ak)" fill="url(#al)" d="M125.482 37.618h8.568v8.569h-8.568z"/><path fill="#232021" d="M132.848 41.902a3.082 3.082 0 11-6.164 0 3.082 3.082 0 016.164 0m35.172-18.789a3.833 3.833 0 11-7.664 0 3.833 3.833 0 017.664 0"/><path fill="#FFF" d="M28.044 74.867h272.953v487.592H28.044z"/><path fill="#9197A0" d="M28.044 74.867h272.953V98H28.044z"/><path fill="#F0F0F4" d="M28.044 97.867h272.953v44.702H28.044z"/><path fill="none" stroke="#E0E0E0" stroke-width="2" stroke-miterlimit="10" d="M28.044 142.569h272.954"/><path fill="none" stroke="#010101" stroke-width="1.5" stroke-miterlimit="10" d="M28.044 74.867h272.953v487.592H28.044z"/><path fill="#FFF" d="M264.755 86.635a1.242 1.242 0 11.002 2.484 1.242 1.242 0 01-.002-2.484"/><path fill="#FFF" d="M267.728 84.881c-.022-.017-.039-.036-.056-.053l-.058-.053c-.008-.011-.021-.018-.028-.025a4.062 4.062 0 00-5.608.131l-.181.179-.247.251a.783.783 0 000 1.102.779.779 0 001.104 0l.432-.43a2.506 2.506 0 013.537 0l.31.302a.773.773 0 001.322-.549c0-.206-.08-.4-.223-.545l-.304-.31z"/><path fill="#FFF" d="M269.845 83.344l-.256-.257c-.002-.004-.002-.004-.006-.004l-.202-.205a.633.633 0 00-.115-.093c-2.623-2.299-6.61-2.23-9.145.211a1.32 1.32 0 01-.039.029l-.468.468a.712.712 0 001.007 1.007l.468-.465c.004-.004.004-.009.008-.014a5.343 5.343 0 017.374-.037l.367.367a.712.712 0 001.007-1.007"/><path fill="#F8F8F6" d="M277.388 90.073c-.542.002-.978-.401-.978-.896l-.013-7.031c0-.491.44-.896.972-.897l16.319-.028c.535.004.972.402.98.896l-.002 1.456 1.258-.009.01 4.144-1.26.006.004 1.437c0 .494-.438.894-.976.896l-16.314.026zm16.602-8.215l-16.91.028.006 7.558L294 89.415l-.01-7.557zm-16.254.729l12.301-.021.011 6.149-12.303.015-.009-6.143z"/><circle fill="#63B059" cx="277.258" cy="532.75" r="8.082"/><path fill="none" stroke="#FFF" stroke-width="1.5" stroke-miterlimit="10" d="M277.258 529.139v8.693"/><path fill="#FFF" d="M272.964 532.617l.769.717 3.524-3.793 3.526 3.793.768-.717-4.294-4.617z"/><path fill="#828891" d="M50.739 532.832a4.358 4.358 0 108.716.002 4.358 4.358 0 00-8.716-.002zm13.746-7.377h-4.694c-.335-1.34-.671-2.682-2.012-2.682h-5.364c-1.341 0-1.676 1.342-2.012 2.682H45.71c-.738 0-1.341.604-1.341 1.342v12.07c0 .738.604 1.342 1.341 1.342h18.775c.738 0 1.341-.604 1.341-1.342v-12.07a1.345 1.345 0 00-1.341-1.342zm-9.388 13.328a5.951 5.951 0 110-11.902 5.951 5.951 0 010 11.902zm9.388-9.304h-2.682v-1.34h2.682v1.34zm0 0"/><path fill="none" stroke="#E3E3E4" stroke-width="1.5" stroke-miterlimit="10" d="M287.369 533.5c0 5.521-4.478 10-10 10h-193c-5.523 0-10-4.479-10-10V532c0-5.523 4.477-10 10-10h193c5.522 0 10 4.477 10 10v1.5z"/><defs><path id="am" d="M40.244 102h33.615v34.32H40.244z"/></defs><clipPath id="an"><use xlink:href="#am" overflow="visible"/></clipPath><path clip-path="url(#an)" fill="#B5B8B8" d="M73.858 118.807c0 9.284-7.525 16.807-16.806 16.807-9.284 0-16.809-7.523-16.809-16.807 0-9.282 7.525-16.808 16.809-16.808 9.281 0 16.806 7.526 16.806 16.808"/><path clip-path="url(#an)" fill="#FFF" d="M63.109 118.237a5.965 5.965 0 11-11.93 0c0-3.295 2.669-5.965 5.965-5.965s5.965 2.669 5.965 5.965m-16.716 14.176s2.289-6.292 10.604-6.292c8.314 0 10.603 5.826 10.603 5.826s-2.68 4.195-9.37 4.365c-8.693.222-11.837-3.899-11.837-3.899"/><path fill="#323434" d="M285.369 110.938h4v4.063h-4zm0 7h4v4.063h-4zm0 7h4v4.063h-4zm-190.253-2.972c-.175.167-.344.335-.506.505-.162.171-.331.344-.506.519a8.99 8.99 0 01-1.228-1.452 8.839 8.839 0 01-.821-1.478 8.783 8.783 0 01-.84 1.563c-.342.508-.74.999-1.195 1.471a18.86 18.86 0 01-.513-.506 41.55 41.55 0 01-.499-.519 8.82 8.82 0 001.163-1.406c.302-.464.541-.924.716-1.379.167-.447.283-.896.348-1.347.066-.451.099-.9.099-1.346h-1.839v-1.393h5.136v1.393h-1.839c0 .446.028.889.085 1.327.057.438.168.875.335 1.313.166.438.4.885.703 1.34a8.01 8.01 0 001.201 1.395zm1.865 4.111h-1.524v-11.822h1.524v4.348h.998v-4.479h1.524v12.348h-1.524v-6.476h-.998v6.081zm5.911-7.028c.788 0 1.596-.035 2.424-.105.828-.07 1.688-.175 2.581-.315l.131 1.379c-1.813.289-4.046.434-6.699.434v-5.832h1.563v4.439zm7.448 7.094h-7.763v-4.334h1.563v2.942h6.2v1.392zm-.197-7.409v3.402h-1.563v-8.013h1.563v3.205h1.839v1.406h-1.839zm13.398.604c-.175.175-.353.348-.532.519-.179.171-.357.344-.532.519a6.807 6.807 0 01-1.629-1.025 4.406 4.406 0 01-1.051-1.3 4.643 4.643 0 01-1.051 1.418 7.394 7.394 0 01-1.682 1.169c-.175-.175-.35-.348-.525-.519s-.35-.344-.525-.519a7.3 7.3 0 001.347-.933c.372-.333.676-.674.913-1.024s.409-.705.519-1.064c.109-.359.164-.714.164-1.064v-1.104h1.629v1.104a3.325 3.325 0 00.696 2.049c.236.324.541.637.913.939.372.304.821.581 1.346.835zm2.259 4.414c0 .429-.087.819-.263 1.169-.175.35-.412.652-.709.906-.307.245-.666.436-1.077.571s-.849.204-1.313.204c-.456 0-.887-.065-1.294-.197a3.186 3.186 0 01-1.057-.565 2.783 2.783 0 01-.723-.907 2.607 2.607 0 01-.263-1.182c0-.446.087-.847.263-1.202.175-.355.416-.659.723-.913.297-.245.65-.434 1.057-.565s.838-.197 1.294-.197c.464 0 .9.068 1.307.204s.764.326 1.07.571c.307.254.547.558.723.913.175.356.262.752.262 1.19zm-1.576 0c0-.219-.046-.418-.138-.598a1.49 1.49 0 00-.374-.466 1.84 1.84 0 00-.572-.302c-.214-.07-.444-.105-.689-.105s-.475.035-.689.105c-.215.07-.401.166-.559.289a1.321 1.321 0 00-.525 1.077c0 .228.046.432.138.611.092.18.221.331.387.453.158.123.344.217.559.283.214.065.444.099.689.099s.475-.035.689-.105c.215-.07.405-.166.572-.289a1.3 1.3 0 00.512-1.052zm1.681-5.648v2.509h-1.576v-6.489h1.576v2.588h1.839v1.392h-1.839zm8.302-.762c0 .263-.053.506-.158.729a1.919 1.919 0 01-.42.584 2.486 2.486 0 01-.644.44 3.509 3.509 0 01-.801.269v.525c.972 0 2.019-.118 3.14-.354.026.21.05.422.072.637.021.214.042.427.059.637-1.139.246-2.562.368-4.269.368h-3.205v-1.288h2.745v-.525c-.307-.053-.587-.136-.841-.25s-.473-.258-.657-.434a2.01 2.01 0 01-.434-.598 1.722 1.722 0 01-.157-.742c0-.324.079-.617.236-.88s.363-.486.617-.67c.254-.175.547-.311.88-.407a3.724 3.724 0 011.038-.145c.359 0 .707.048 1.044.145.337.096.637.232.899.407.254.184.46.407.618.67s.238.558.238.882zm-6.095-1.274v-1.208h2.535v-.88h1.563v.88h2.522v1.208h-6.62zm4.519 1.274c0-.297-.121-.506-.361-.624s-.528-.177-.86-.177c-.158 0-.307.013-.447.04s-.267.07-.381.131a.827.827 0 00-.269.256.671.671 0 00-.099.375c0 .14.033.258.099.355a.739.739 0 00.269.236c.114.061.241.105.381.131s.289.039.447.039c.333 0 .62-.057.86-.17s.361-.312.361-.592zm4.532 6.752c0 .359-.079.692-.236.998a2.493 2.493 0 01-.657.801c-.289.219-.631.392-1.025.519s-.828.19-1.3.19c-.447 0-.865-.062-1.254-.184s-.725-.293-1.005-.512a2.36 2.36 0 01-.677-.794 2.17 2.17 0 01-.243-1.018c0-.376.081-.723.243-1.038a2.34 2.34 0 01.677-.802 3.34 3.34 0 011.011-.512 4.08 4.08 0 011.248-.184 4.3 4.3 0 011.287.184c.394.123.736.293 1.025.512.28.228.501.498.663.808.162.312.243.655.243 1.032zm-1.577 0c0-.376-.153-.661-.46-.854-.307-.192-.696-.289-1.169-.289-.464 0-.85.094-1.156.283-.307.188-.46.475-.46.86 0 .359.153.633.46.821.306.188.691.283 1.156.283.499 0 .895-.099 1.189-.296a.926.926 0 00.44-.808zm1.813-5.675v3.087h-1.576v-7.382h1.576v2.903h1.813v1.392h-1.813zm2.01 1.498c.482-.263.898-.549 1.248-.86s.643-.633.881-.965c.227-.333.402-.677.525-1.031a5.26 5.26 0 00.248-1.058h-2.271v-1.392h6.227v1.392h-2.287c.053.386.141.747.264 1.084.123.337.303.654.539.952.227.307.512.591.854.854s.758.517 1.248.762l-.525.519c-.176.17-.352.344-.525.519a6.612 6.612 0 01-1.637-1.044c-.459-.407-.803-.847-1.031-1.32a4.934 4.934 0 01-1.057 1.451c-.451.434-1 .826-1.648 1.176-.176-.175-.35-.348-.525-.519a37.026 37.026 0 01-.528-.52zm10.168 6.226H141.8v-4.216h1.576v2.811h6.201v1.405zm-3.784-9.353h2.113v-2.667h1.576v8.013h-1.576v-3.94h-2.113v-1.406zm4.899 6.358v-1.406h1.195l-.118-4.44h1.524l.118 4.427c.271-.008.531-.015.781-.02s.501-.015.755-.033l.132-4.4h1.511l-.118 4.269.723-.105c.244-.035.494-.075.748-.119l.132 1.393c-1.726.289-3.727.434-6.003.434h-1.38zm.263-6.555V115.2h6.477v1.393h-6.477zm9.3 3.402v6.476h-1.563v-12.348h1.563v4.479h1.97v1.392h-1.97zm6.331-3.717v-1.182h2.666v-.972h1.576v.972h2.667v1.182h-6.909zm6.201 2.575c0 .324-.063.626-.19.906s-.309.525-.546.736c-.245.21-.538.374-.88.492a3.461 3.461 0 01-1.143.178c-.412 0-.784-.057-1.116-.171a2.583 2.583 0 01-.854-.473 2.016 2.016 0 01-.564-.729 2.203 2.203 0 01-.197-.939c0-.342.068-.655.204-.939.136-.284.326-.532.571-.742.236-.201.521-.359.854-.473s.7-.171 1.104-.171c.42 0 .801.059 1.143.177.342.119.631.283.867.493.236.21.42.458.552.742a2.2 2.2 0 01.195.913zm4.124 6.318c-.157.175-.315.348-.473.519a84.06 84.06 0 00-.473.519c-.525-.149-.987-.309-1.386-.479s-.747-.353-1.045-.545a4.208 4.208 0 01-.762-.618 3.553 3.553 0 01-.525-.696c-.254.464-.672.896-1.254 1.294-.583.398-1.396.747-2.438 1.044a24.305 24.305 0 01-.479-.519l-.466-.519a9.339 9.339 0 001.596-.578 5.607 5.607 0 001.215-.762c.333-.28.592-.583.775-.907a2.02 2.02 0 00.276-1.011v-.276h1.576v.25c0 .351.087.69.263 1.018.175.329.429.633.762.913s.737.537 1.215.769 1.019.426 1.623.584zm-5.701-6.318a.959.959 0 00-.322-.749c-.215-.192-.501-.289-.86-.289-.351 0-.633.096-.848.289a.961.961 0 00-.321.749c0 .289.109.532.328.729.219.197.499.295.841.295s.624-.096.848-.289a.93.93 0 00.334-.735zm4.939-.644v3.665h-1.576v-7.75h1.576v2.68h1.813v1.406h-1.813zm4.007 3.757c.771 0 1.569-.035 2.397-.105.827-.07 1.684-.175 2.568-.315l.144 1.379c-1.813.289-4.041.434-6.686.434v-4.913h3.993v-1.852h-3.993v-1.393h5.569v4.65h-3.993v2.115zm7.356-1.971v6.476h-1.563v-12.348h1.563v4.479h1.957v1.392h-1.957zm8.879-2.509c0 .464-.081.889-.243 1.274s-.383.714-.663.985-.611.482-.992.631-.79.223-1.228.223c-.438 0-.848-.074-1.229-.223s-.712-.363-.992-.644a2.863 2.863 0 01-.656-.979 3.277 3.277 0 01-.236-1.268c0-.464.078-.887.236-1.268.157-.381.376-.711.656-.992.28-.271.611-.481.992-.63s.79-.224 1.229-.224c.438 0 .847.075 1.228.224s.712.359.992.63.501.6.663.985.243.812.243 1.276zm-1.576 0c0-.543-.147-.965-.44-1.268s-.659-.453-1.097-.453c-.446 0-.819.151-1.116.453-.298.302-.447.725-.447 1.268 0 .552.149.977.447 1.274.297.297.67.446 1.116.446.429 0 .792-.149 1.09-.446.298-.297.447-.722.447-1.274zm4.938 8.657h-7.671v-4.216h1.576v2.811h6.095v1.405zm-.091-4.007h-1.576v-8.013h1.576v8.013zm5.755-2.219a6.727 6.727 0 001.247-.86c.351-.311.644-.633.881-.965.228-.333.402-.677.525-1.031.122-.355.205-.707.249-1.058h-2.272v-1.392h6.227v1.392h-2.286c.053.386.141.747.263 1.084.123.337.303.654.539.952.228.307.513.591.854.854.342.263.758.517 1.248.762-.175.175-.351.348-.525.519-.175.17-.351.344-.525.519a6.587 6.587 0 01-1.636-1.044c-.459-.407-.803-.847-1.031-1.32a4.952 4.952 0 01-1.057 1.451 7.52 7.52 0 01-1.648 1.176l-.525-.519a32.425 32.425 0 01-.528-.52zm10.166 6.226h-7.776v-4.216h1.576v2.811h6.2v1.405zm-3.783-9.353h2.114v-2.667h1.576v8.013h-1.576v-3.94H211.8v-1.406zm11.335 1.379v1.353h5.058v1.392h-11.69v-1.392h5.057v-1.353h1.575zm4.125-.656c-.141.175-.28.354-.421.539l-.407.539c-1.033-.175-1.896-.434-2.587-.775-.692-.342-1.191-.762-1.498-1.261-.376.508-.891.931-1.543 1.268-.652.337-1.504.593-2.555.769a50.732 50.732 0 01-.401-.539 19.116 19.116 0 00-.413-.539 7.802 7.802 0 001.721-.447 5.546 5.546 0 001.287-.696c.35-.254.617-.525.801-.814.185-.289.276-.573.276-.854v-.486h1.642v.486c0 .289.092.578.276.867.184.289.455.561.814.814.35.263.776.493 1.28.69.505.196 1.08.343 1.728.439zm-1.641 6.449c0 .412-.084.779-.25 1.104-.167.324-.395.6-.684.827a3.107 3.107 0 01-1.037.525c-.403.123-.841.184-1.313.184s-.909-.059-1.308-.177-.742-.292-1.031-.519c-.288-.228-.517-.505-.683-.834s-.25-.698-.25-1.11a2.391 2.391 0 01.932-1.918c.289-.236.633-.422 1.031-.558s.835-.204 1.308-.204.91.059 1.313.177c.402.118.749.291 1.037.519.289.228.517.508.684.84.167.334.251.715.251 1.144zm-1.577 0c0-.219-.046-.409-.138-.571s-.217-.296-.374-.401a1.66 1.66 0 00-.545-.23 2.804 2.804 0 00-.638-.072c-.228 0-.444.024-.65.072a1.86 1.86 0 00-.545.217c-.157.105-.282.239-.374.401s-.138.357-.138.584c0 .21.048.392.145.545.096.153.223.283.381.388.157.105.339.182.545.23.205.048.418.072.637.072s.432-.026.638-.079c.205-.052.387-.131.545-.236.157-.105.282-.234.374-.388a1.02 1.02 0 00.137-.532zm11.783-2.062c-.175.175-.35.346-.525.512-.175.167-.35.337-.525.512-.639-.473-1.18-.957-1.622-1.451s-.804-1.022-1.084-1.583c-.245.552-.596 1.093-1.051 1.623s-1.003 1.044-1.642 1.543a41.533 41.533 0 00-.525-.513 22.866 22.866 0 01-.525-.512 9.159 9.159 0 001.398-1.294c.372-.433.672-.869.9-1.307.228-.438.39-.88.485-1.327a6.29 6.29 0 00.145-1.34v-1.826h1.643v1.826c0 .447.048.892.145 1.333.096.442.258.878.485 1.307s.528.854.9 1.274.837.829 1.398 1.223zm2.457 4.571h-1.576v-12.348h1.576v12.348zm1.312-2.889h11.48v1.392h-11.48v-1.392zm5.728-5.859c-.307.727-.806 1.347-1.498 1.859-.691.512-1.554.917-2.587 1.215l-.467-.571a27.444 27.444 0 00-.479-.571 7.063 7.063 0 001.826-.775 5.952 5.952 0 001.326-1.09c.351-.394.615-.816.795-1.268s.27-.9.27-1.347v-.341h1.642v.341c0 .447.09.896.27 1.347s.448.874.808 1.268a5.67 5.67 0 001.313 1.09 7.048 7.048 0 001.826.775c-.167.193-.326.383-.479.571l-.467.571c-1.033-.297-1.896-.703-2.587-1.215-.692-.512-1.191-1.132-1.498-1.859l-.013-.013v.013zm8.236 1.445c.631 0 1.236-.02 1.819-.06a19.142 19.142 0 001.701-.19c.026.228.05.449.072.664.021.215.046.436.072.663-1.147.184-2.855.276-5.123.276v-5.911h4.282v1.34h-2.824v.867h2.482v1.353h-2.482v.998zm.131 7.04v-4.637h8.039v4.637h-8.039zm6.463-3.244h-4.886v1.839h4.886v-1.839zm-3.521-6.279h1.34v-2.299h1.406v6.437h-1.406v-2.851h-1.34v-1.287zm5.097 4.269h-1.405v-6.831h1.405v6.831z"/></svg>