<?xml version="1.0" encoding="utf-8"?>
<!-- Generator: Adobe Illustrator 16.0.0, SVG Export Plug-In . SVG Version: 6.00 Build 0)  -->
<!DOCTYPE svg PUBLIC "-//W3C//DTD SVG 1.1//EN" "http://www.w3.org/Graphics/SVG/1.1/DTD/svg11.dtd">
<svg version="1.1" id="Layer_1" xmlns="http://www.w3.org/2000/svg" xmlns:xlink="http://www.w3.org/1999/xlink" x="0px" y="0px"
	 width="60.157px" height="60.156px" viewBox="0 0 60.157 60.156" enable-background="new 0 0 60.157 60.156" xml:space="preserve">
<g>
	<path fill="#FFFFFF" d="M60.157,30.078c0,16.611-13.468,30.078-30.078,30.078C13.466,60.156,0,46.689,0,30.078
		C0,13.467,13.466,0,30.079,0C46.689,0,60.157,13.467,60.157,30.078"/>
	<path fill="#003964" d="M44.197,27.98c-4.785-3.251-10.91-1.927-14.131,2.962c-2.679,4.085-6.733,4.596-8.295,4.596
		c-5.123,0-8.618-3.604-9.656-7.326h-0.003c-0.013-0.041-0.02-0.073-0.03-0.106c-0.01-0.042-0.018-0.082-0.031-0.126
		c-0.409-1.556-0.512-2.294-0.512-3.946c0-8.902,9.14-18.816,22.292-18.816c13.474,0,21.184,10.257,23.177,15.958
		c-0.039-0.106-0.072-0.202-0.104-0.303C53.08,9.723,42.507,1.708,30.053,1.708C14.394,1.708,1.69,14.405,1.69,30.078
		c0,14.005,10.101,25.99,24.117,25.99c11.171,0,18.684-6.262,22.125-14.899C49.822,36.443,48.486,30.894,44.197,27.98"/>
	<path fill="#ED1A3B" d="M57.182,21.728c-1.663-5.562-9.424-16.51-23.352-16.51c-13.152,0-22.292,9.915-22.292,18.816
		c0,1.651,0.104,2.39,0.512,3.946c-0.171-0.681-0.259-1.359-0.259-2.023c0-9.272,9.282-15.694,18.825-15.694
		c12.921,0,23.394,10.471,23.394,23.387c0,10.125-5.828,18.893-14.291,23.104v0.007c10.914-3.952,18.707-14.407,18.707-26.684
		C58.426,27.171,58.036,24.61,57.182,21.728"/>
</g>
</svg>
