<?xml version="1.0" encoding="utf-8"?>
<!-- Generator: Adobe Illustrator 16.0.0, SVG Export Plug-In . SVG Version: 6.00 Build 0)  -->
<!DOCTYPE svg PUBLIC "-//W3C//DTD SVG 1.1//EN" "http://www.w3.org/Graphics/SVG/1.1/DTD/svg11.dtd">
<svg version="1.1" id="Layer_1" xmlns="http://www.w3.org/2000/svg" xmlns:xlink="http://www.w3.org/1999/xlink" x="0px" y="0px"
	 width="510.436px" height="99.182px" viewBox="0 0 510.436 99.182" enable-background="new 0 0 510.436 99.182"
	 xml:space="preserve">
<g>
	<g>
		<g>
			<g>
				<g>
					<g>
						<g>
							<path fill="#003863" d="M76.572,47.332c-8.613-5.855-19.646-3.468-25.436,5.338c-4.838,7.355-12.139,8.27-14.969,8.27
								c-9.213,0-15.521-6.482-17.389-13.191h-0.004c-0.02-0.066-0.031-0.12-0.051-0.186c-0.018-0.076-0.041-0.148-0.06-0.229
								c-0.734-2.798-0.915-4.136-0.915-7.109c0-16.041,16.455-33.9,40.16-33.9c24.271,0,38.158,18.479,41.737,28.748
								c-0.062-0.181-0.116-0.361-0.181-0.546C92.578,14.441,73.531,0,51.109,0C22.889,0,0,22.879,0,51.109
								c0,25.23,18.199,46.828,43.439,46.828c20.135,0,33.665-11.289,39.871-26.844C86.717,62.586,84.305,52.584,76.572,47.332z"/>
						</g>
						<g>
							<path fill="#E4032E" d="M99.967,36.068C96.982,26.053,82.99,6.324,57.91,6.324c-23.705,0-40.16,17.859-40.16,33.9
								c0,2.974,0.181,4.312,0.915,7.109c-0.308-1.223-0.471-2.451-0.471-3.646c0-16.704,16.728-28.279,33.921-28.279
								c23.275,0,42.143,18.868,42.143,42.139c0,18.246-10.5,34.035-25.756,41.623l0.006,0.012
								c19.664-7.121,33.707-25.955,33.707-48.072C102.215,45.875,101.512,41.26,99.967,36.068z"/>
						</g>
					</g>
				</g>
			</g>
		</g>
	</g>
	<g>
		<path fill="#575656" d="M161.083,63.387v4.592h-27.038v-4.592h8.499v-13.59h5.137v13.59H161.083z M153.379,58.563V37.553h-17.792
			v-4.546h22.882v25.557H153.379z M169.442,72.106h-5.183V30.734h5.183v17.439h5.324v4.87h-5.324V72.106z"/>
		<path fill="#575656" d="M200.416,33.332v4.452h-24.283v-4.452h9.526v-3.433h5.463v3.433H200.416z M177.861,58.007h32.781v13.729
			h-5.137v-9.184h-27.645V58.007z M198.034,47.386c0,1.205-0.257,2.35-0.771,3.432c-0.514,1.083-1.19,2.025-2.031,2.829
			c-0.903,0.773-1.931,1.399-3.082,1.879c-1.152,0.479-2.397,0.719-3.736,0.719c-1.339,0-2.591-0.239-3.759-0.719
			s-2.188-1.105-3.059-1.879c-0.872-0.804-1.564-1.746-2.078-2.829c-0.514-1.082-0.771-2.227-0.771-3.432
			c0-1.206,0.257-2.343,0.771-3.409c0.514-1.067,1.206-2.002,2.078-2.807c0.872-0.772,1.892-1.398,3.059-1.878
			s2.42-0.719,3.759-0.719c1.338,0,2.584,0.239,3.736,0.719c1.151,0.479,2.179,1.105,3.082,1.878
			c0.841,0.805,1.518,1.739,2.031,2.807C197.777,45.043,198.034,46.18,198.034,47.386z M193.084,47.339
			c0-1.236-0.46-2.296-1.377-3.177c-0.919-0.882-2.016-1.322-3.292-1.322c-1.277,0-2.366,0.44-3.269,1.322
			c-0.903,0.881-1.354,1.94-1.354,3.177c0,1.237,0.451,2.304,1.354,3.2c0.902,0.897,1.992,1.346,3.269,1.346
			c1.276,0,2.374-0.448,3.292-1.346C192.625,49.643,193.084,48.576,193.084,47.339z M210.643,55.688h-5.137V30.734h5.137v9.694
			h5.977v5.055h-5.977V55.688z"/>
		<path fill="#575656" d="M239.981,66.68h-5.183V37.924h-15.971v-4.639h21.154V66.68z M250.395,30.734h5.183v41.372h-5.183V30.734z"
			/>
		<path fill="#575656" d="M277.772,54.203v-3.2h-16.531v-4.221h38.292v4.221h-16.578v3.2h13.496v10.482h-27.038v2.505h27.598v4.221
			h-32.688V60.65h26.991v-2.365h-26.991v-4.082H277.772z M280.388,35.604l-14.569,10.25l-3.082-3.571l17.651-12.337l17.651,12.337
			l-3.082,3.571L280.388,35.604z"/>
		<path fill="#575656" d="M303.282,36.347V31.94h23.909v4.406h-10.18l10.601,12.848l-3.596,2.968l-8.592-10.621l-8.452,11.317
			l-3.736-2.969l10.6-13.543H303.282z M336.391,63.294c0,1.392-0.288,2.698-0.864,3.919c-0.577,1.222-1.347,2.296-2.312,3.224
			c-0.965,0.928-2.109,1.662-3.432,2.203c-1.324,0.541-2.732,0.812-4.226,0.812c-1.464,0-2.865-0.271-4.203-0.812
			c-1.339-0.541-2.491-1.275-3.456-2.203c-0.965-0.928-1.736-2.002-2.312-3.224c-0.576-1.221-0.864-2.527-0.864-3.919
			s0.288-2.697,0.864-3.919c0.576-1.222,1.346-2.296,2.312-3.224c0.965-0.928,2.117-1.662,3.456-2.203
			c1.338-0.541,2.739-0.812,4.203-0.812c1.494,0,2.902,0.271,4.226,0.812c1.323,0.541,2.467,1.275,3.432,2.203
			c0.964,0.928,1.735,2.002,2.312,3.224C336.103,60.597,336.391,61.902,336.391,63.294z M331.301,63.248
			c0-1.546-0.568-2.876-1.705-3.989c-1.137-1.113-2.498-1.67-4.086-1.67c-1.557,0-2.895,0.557-4.016,1.67
			c-1.121,1.113-1.681,2.443-1.681,3.989c0,1.576,0.561,2.914,1.681,4.012c1.121,1.097,2.459,1.646,4.016,1.646
			c1.588,0,2.949-0.55,4.086-1.646C330.732,66.162,331.301,64.824,331.301,63.248z M334.756,52.673v-8.951h-7.752v-4.453h7.752
			v-8.534h5.183v21.938H334.756z"/>
		<path fill="#575656" d="M375.676,38.852v-6.354h5.137v23.654h-13.496V64.5h16.578v4.545h-38.292V64.5h16.531v-8.349h-13.449
			V32.497h5.09v6.354H375.676z M375.676,51.652v-8.349h-21.901v8.349H375.676z"/>
		<path fill="#575656" d="M390.866,47.942v-16.79h32.081v4.174h-26.944v2.18h26.757v4.035h-26.757v2.319h27.085v4.082h-13.589v2.644
			h16.578v4.221h-38.292v-4.221h16.531v-2.644H390.866z M417.11,64.824c0,1.237-0.257,2.405-0.771,3.502
			c-0.514,1.098-1.222,2.064-2.125,2.899c-0.965,0.834-2.063,1.499-3.292,1.994c-1.23,0.494-2.561,0.742-3.993,0.742
			c-1.401,0-2.725-0.248-3.969-0.742c-1.246-0.495-2.335-1.16-3.269-1.994c-0.934-0.835-1.658-1.802-2.171-2.899
			c-0.514-1.097-0.771-2.265-0.771-3.502c0-1.268,0.257-2.441,0.771-3.524c0.514-1.082,1.238-2.057,2.171-2.922
			c0.934-0.835,2.023-1.492,3.269-1.972c1.245-0.479,2.568-0.719,3.969-0.719c1.432,0,2.762,0.24,3.993,0.719
			c1.229,0.479,2.327,1.137,3.292,1.972c0.903,0.865,1.611,1.84,2.125,2.922C416.853,62.383,417.11,63.557,417.11,64.824z
			 M411.973,64.778c0-1.36-0.499-2.52-1.495-3.479c-0.997-0.958-2.179-1.438-3.549-1.438c-1.37,0-2.561,0.48-3.572,1.438
			c-1.012,0.959-1.518,2.118-1.518,3.479c0,1.361,0.505,2.527,1.518,3.502c1.011,0.974,2.202,1.461,3.572,1.461
			c1.37,0,2.552-0.487,3.549-1.461C411.475,67.306,411.973,66.14,411.973,64.778z"/>
		<path fill="#575656" d="M442.48,30.503l13.121,21.104l-4.203,2.597l-8.918-14.842l-8.873,15.167l-4.297-2.598L442.48,30.503z
			 M432.72,71.271V57.45h5.137v9.276h28.998v4.545H432.72z M461.298,57.218V30.734h5.184v26.483H461.298z"/>
		<path fill="#575656" d="M472.145,56.894h38.291v4.545h-16.577v10.668h-5.184V61.438h-16.53V56.894z M480.317,36.671h21.9v-5.24
			h5.137v19.897h-32.127V31.431h5.09V36.671z M502.217,41.124h-21.9v5.705h21.9V41.124z"/>
	</g>
</g>
</svg>
