<?xml version="1.0" encoding="utf-8"?>
<!-- Generator: Adobe Illustrator 16.0.0, SVG Export Plug-In . SVG Version: 6.00 Build 0)  -->
<!DOCTYPE svg PUBLIC "-//W3C//DTD SVG 1.1//EN" "http://www.w3.org/Graphics/SVG/1.1/DTD/svg11.dtd">
<svg version="1.1" id="Layer_1" xmlns="http://www.w3.org/2000/svg" xmlns:xlink="http://www.w3.org/1999/xlink" x="0px" y="0px"
	 width="458.726px" height="95.123px" viewBox="0 0 458.726 95.123" enable-background="new 0 0 458.726 95.123"
	 xml:space="preserve">
<circle fill="#FFFFFF" cx="47.562" cy="47.562" r="47.562"/>
<g>
	<g>
		<g>
			<g>
				<g>
					<g>
						<path fill="#003863" d="M70.332,44.395c-7.71-5.241-17.587-3.104-22.77,4.779c-4.331,6.584-10.867,7.402-13.4,7.402
							c-8.248,0-13.894-5.803-15.566-11.809h-0.003c-0.018-0.06-0.028-0.107-0.046-0.166c-0.016-0.068-0.037-0.133-0.053-0.205
							c-0.657-2.505-0.819-3.702-0.819-6.364c0-14.359,14.73-30.348,35.951-30.348c21.728,0,34.159,16.542,37.363,25.735
							c-0.055-0.161-0.104-0.323-0.162-0.488C84.66,14.951,67.609,2.023,47.538,2.023c-25.263,0-45.753,20.481-45.753,45.753
							c0,22.586,16.292,41.921,38.887,41.921c18.024,0,30.137-10.106,35.692-24.031C79.413,58.05,77.254,49.097,70.332,44.395z"/>
					</g>
					<g>
						<path fill="#E4032E" d="M91.274,34.312C88.603,25.346,76.077,7.685,53.625,7.685c-21.221,0-35.951,15.988-35.951,30.348
							c0,2.662,0.162,3.859,0.819,6.364c-0.275-1.095-0.421-2.194-0.421-3.264c0-14.954,14.975-25.316,30.366-25.316
							c20.836,0,37.726,16.892,37.726,37.723c0,16.334-9.399,30.469-23.056,37.261l0.005,0.011
							c17.604-6.375,30.175-23.234,30.175-43.034C93.287,43.091,92.658,38.959,91.274,34.312z"/>
					</g>
				</g>
			</g>
		</g>
	</g>
</g>
<g>
	<path fill="#FFFFFF" d="M145.986,58.273v4.111h-24.204v-4.111h7.608V46.108h4.599v12.165H145.986z M139.089,53.956V35.147h-15.927
		v-4.069h20.484v22.878H139.089z M153.469,66.08h-4.64V29.044h4.64v15.611h4.766v4.359h-4.766V66.08z"/>
	<path fill="#FFFFFF" d="M181.196,31.369v3.985h-21.738v-3.985h8.528v-3.073h4.891v3.073H181.196z M161.005,53.458h29.346v12.29
		h-4.598v-8.222h-24.748V53.458z M179.064,43.95c0,1.078-0.23,2.104-0.69,3.071c-0.46,0.97-1.065,1.813-1.818,2.533
		c-0.809,0.692-1.729,1.253-2.759,1.682c-1.031,0.43-2.146,0.644-3.344,0.644s-2.32-0.214-3.365-0.644
		c-1.045-0.429-1.958-0.989-2.738-1.682c-0.78-0.72-1.4-1.563-1.86-2.533c-0.46-0.968-0.69-1.993-0.69-3.071
		c0-1.08,0.23-2.098,0.69-3.052c0.459-0.956,1.08-1.793,1.86-2.513c0.78-0.691,1.693-1.252,2.738-1.682
		c1.045-0.429,2.167-0.644,3.365-0.644s2.313,0.215,3.344,0.644c1.031,0.43,1.951,0.99,2.759,1.682
		c0.753,0.72,1.358,1.557,1.818,2.513C178.834,41.853,179.064,42.87,179.064,43.95z M174.633,43.908
		c0-1.107-0.412-2.056-1.233-2.844c-0.823-0.79-1.805-1.184-2.948-1.184c-1.143,0-2.118,0.394-2.926,1.184
		c-0.809,0.788-1.212,1.736-1.212,2.844s0.404,2.062,1.212,2.864c0.808,0.804,1.783,1.205,2.926,1.205
		c1.143,0,2.125-0.401,2.948-1.205C174.222,45.97,174.633,45.016,174.633,43.908z M190.351,51.382h-4.598V29.044h4.598v8.678h5.351
		v4.525h-5.351V51.382z"/>
	<path fill="#FFFFFF" d="M216.615,61.222h-4.64V35.479h-14.297v-4.152h18.937V61.222z M225.938,29.044h4.64V66.08h-4.64V29.044z"/>
	<path fill="#FFFFFF" d="M250.446,50.053v-2.865h-14.798v-3.778h34.279v3.778h-14.84v2.865h12.081v9.384h-24.204v2.242h24.706v3.778
		h-29.262v-9.633h24.162v-2.117h-24.162v-3.654H250.446z M252.787,33.403l-13.042,9.176l-2.759-3.197l15.802-11.044l15.801,11.044
		l-2.759,3.197L252.787,33.403z"/>
	<path fill="#FFFFFF" d="M273.282,34.067v-3.944h21.403v3.944h-9.113l9.49,11.502l-3.219,2.656l-7.692-9.508l-7.566,10.131
		l-3.344-2.657l9.489-12.124H273.282z M302.921,58.19c0,1.246-0.258,2.416-0.773,3.509c-0.516,1.094-1.206,2.055-2.069,2.886
		c-0.864,0.83-1.888,1.488-3.072,1.972c-1.185,0.484-2.446,0.727-3.783,0.727c-1.311,0-2.564-0.242-3.763-0.727
		c-1.199-0.483-2.229-1.142-3.093-1.972c-0.864-0.831-1.554-1.792-2.069-2.886c-0.516-1.093-0.773-2.263-0.773-3.509
		c0-1.245,0.258-2.414,0.773-3.508c0.515-1.094,1.205-2.056,2.069-2.886c0.864-0.83,1.895-1.488,3.093-1.973
		c1.198-0.484,2.452-0.727,3.763-0.727c1.337,0,2.598,0.242,3.783,0.727c1.184,0.484,2.208,1.143,3.072,1.973
		c0.863,0.83,1.553,1.792,2.069,2.886C302.663,55.776,302.921,56.945,302.921,58.19z M298.364,58.149
		c0-1.384-0.509-2.574-1.526-3.571c-1.018-0.996-2.236-1.494-3.658-1.494c-1.394,0-2.592,0.498-3.595,1.494
		c-1.003,0.997-1.505,2.188-1.505,3.571c0,1.411,0.502,2.609,1.505,3.592c1.003,0.981,2.201,1.474,3.595,1.474
		c1.421,0,2.64-0.492,3.658-1.474C297.855,60.759,298.364,59.561,298.364,58.149z M301.458,48.683V40.67h-6.939v-3.986h6.939v-7.64
		h4.64v19.639H301.458z"/>
	<path fill="#FFFFFF" d="M338.089,36.311v-5.689h4.598v21.176h-12.081v7.474h14.84v4.068h-34.279v-4.068h14.798v-7.474h-12.039
		V30.621h4.557v5.689H338.089z M338.089,47.77v-7.474h-19.606v7.474H338.089z"/>
	<path fill="#FFFFFF" d="M351.687,44.448v-15.03h28.719v3.736h-24.121v1.951h23.953v3.612h-23.953v2.076h24.247v3.654h-12.166v2.366
		h14.84v3.778h-34.279v-3.778h14.798v-2.366H351.687z M375.181,59.561c0,1.107-0.23,2.153-0.69,3.135
		c-0.46,0.983-1.094,1.849-1.902,2.596c-0.864,0.747-1.846,1.342-2.947,1.785c-1.102,0.442-2.293,0.665-3.574,0.665
		c-1.254,0-2.439-0.223-3.553-0.665c-1.115-0.443-2.09-1.038-2.927-1.785c-0.835-0.747-1.484-1.612-1.944-2.596
		c-0.459-0.981-0.689-2.027-0.689-3.135c0-1.135,0.23-2.186,0.689-3.155c0.46-0.968,1.108-1.841,1.944-2.615
		c0.836-0.747,1.812-1.336,2.927-1.765c1.114-0.429,2.299-0.644,3.553-0.644c1.281,0,2.473,0.215,3.574,0.644
		c1.101,0.429,2.083,1.018,2.947,1.765c0.808,0.774,1.442,1.647,1.902,2.615C374.951,57.375,375.181,58.426,375.181,59.561z
		 M370.582,59.52c0-1.218-0.446-2.255-1.338-3.114c-0.892-0.857-1.951-1.287-3.177-1.287c-1.227,0-2.293,0.43-3.198,1.287
		c-0.906,0.859-1.358,1.896-1.358,3.114c0,1.219,0.453,2.263,1.358,3.135c0.905,0.872,1.972,1.309,3.198,1.309
		c1.226,0,2.285-0.437,3.177-1.309C370.136,61.782,370.582,60.738,370.582,59.52z"/>
	<path fill="#FFFFFF" d="M397.892,28.836l11.746,18.893l-3.763,2.324l-7.983-13.286l-7.943,13.577l-3.847-2.325L397.892,28.836z
		 M389.155,65.332V52.96h4.599v8.304h25.959v4.068H389.155z M414.738,52.752V29.044h4.641v23.708H414.738z"/>
	<path fill="#FFFFFF" d="M424.448,52.461h34.278v4.069h-14.84v9.55h-4.641v-9.55h-14.798V52.461z M431.763,34.358h19.605v-4.691
		h4.599v17.813h-28.761V29.667h4.557V34.358z M451.369,38.345h-19.605v5.106h19.605V38.345z"/>
</g>
</svg>
